<?xml version="1.0" standalone="no"?>
<!DOCTYPE svg PUBLIC "-//W3C//DTD SVG 20010904//EN"
 "http://www.w3.org/TR/2001/REC-SVG-20010904/DTD/svg10.dtd">
<svg version="1.0" xmlns="http://www.w3.org/2000/svg"
 width="1792.000000pt" height="1024.000000pt" viewBox="0 0 1792.000000 1024.000000"
 preserveAspectRatio="xMidYMid meet">

<g transform="translate(0.000000,1024.000000) scale(0.100000,-0.100000)"
fill="#000000" stroke="none">
<path d="M7790 9426 c-15 -19 -9 -56 12 -69 23 -15 68 6 68 32 0 42 -54 67
-80 37z"/>
<path d="M8034 9406 c-3 -8 -4 -25 -2 -38 l3 -23 509 -3 c378 -2 512 1 523 10
8 6 13 23 11 37 l-3 26 -518 3 c-442 2 -518 0 -523 -12z"/>
<path d="M9534 9409 c-24 -12 -54 -59 -54 -86 0 -11 14 -41 31 -66 27 -42 30
-53 27 -108 l-3 -61 -73 -19 c-109 -28 -222 -90 -283 -156 -171 -183 -211
-442 -102 -658 82 -162 221 -266 398 -299 l60 -11 3 -163 3 -163 37 3 37 3 0
159 0 160 75 13 c116 22 205 69 283 152 214 228 220 566 14 788 -32 34 -83 79
-114 99 -60 40 -177 84 -223 84 -34 0 -40 14 -40 89 0 45 5 63 21 82 34 39 41
66 25 103 -24 57 -72 79 -122 55z m193 -567 c154 -72 240 -238 203 -393 -29
-122 -96 -212 -195 -259 -56 -27 -73 -30 -156 -30 -83 0 -101 4 -154 28 -217
103 -275 390 -115 565 55 61 152 117 200 117 32 0 33 -1 26 -37 -3 -21 -6 -65
-6 -99 0 -59 -1 -61 -37 -85 -72 -46 -106 -127 -84 -198 14 -49 75 -109 122
-121 115 -31 246 81 225 192 -9 50 -54 113 -97 137 -35 20 -38 25 -44 81 -4
32 -4 77 0 100 6 37 9 40 33 33 15 -3 51 -17 79 -31z m-92 -287 c31 -30 32
-66 3 -99 -37 -41 -72 -44 -109 -7 -26 27 -30 37 -25 64 13 65 85 89 131 42z"/>
<path d="M10111 9333 c-27 -18 -27 -64 -1 -88 45 -41 117 29 76 74 -24 26 -51
31 -75 14z"/>
<path d="M10442 9328 c-31 -31 0 -98 46 -98 21 0 52 34 52 57 0 38 -71 68 -98
41z"/>
<path d="M7019 9277 c-103 -70 -61 -217 63 -217 42 0 96 33 108 66 45 118 -69
220 -171 151z m101 -77 c15 -28 -4 -60 -35 -60 -14 0 -29 8 -35 20 -15 28 4
60 35 60 14 0 29 -8 35 -20z"/>
<path d="M7789 9214 c-14 -17 -5 -40 24 -58 34 -22 73 28 47 59 -16 20 -54 19
-71 -1z"/>
<path d="M8683 9200 c-114 -69 -58 -240 79 -240 29 0 47 8 75 33 32 30 37 41
41 90 4 55 3 58 -36 97 -34 34 -46 40 -83 40 -26 0 -57 -8 -76 -20z m101 -79
c22 -24 18 -49 -9 -67 -41 -27 -88 39 -53 74 18 18 42 15 62 -7z"/>
<path d="M10990 9165 c-149 -33 -264 -97 -360 -201 l-42 -46 30 -31 31 -30 72
68 c111 104 238 155 387 155 134 0 246 -48 359 -154 l74 -69 24 23 c14 13 25
31 25 40 0 23 -93 109 -171 160 -122 79 -299 114 -429 85z"/>
<path d="M7480 9010 c-8 -14 -8 -26 0 -40 10 -19 21 -20 315 -20 280 0 305 1
313 18 6 9 6 27 1 40 l-8 22 -305 0 c-295 0 -306 -1 -316 -20z"/>
<path d="M6694 9002 c-51 -34 -28 -111 34 -112 26 0 62 33 62 58 0 42 -62 77
-96 54z"/>
<path d="M10977 8955 c-63 -17 -116 -53 -162 -109 -41 -50 -42 -81 -6 -103 18
-11 24 -7 58 30 69 78 133 107 235 107 79 0 135 -23 205 -85 33 -30 65 -55 70
-55 5 0 20 11 32 24 l23 25 -22 31 c-34 47 -134 118 -193 135 -61 18 -174 18
-240 0z"/>
<path d="M12017 8862 c-13 -14 -17 -38 -17 -100 l0 -82 -28 0 c-42 0 -120 -29
-177 -65 -107 -69 -184 -179 -210 -302 -14 -65 -11 -91 9 -105 6 -4 89 -8 184
-8 l173 0 33 35 c41 43 81 46 120 10 14 -13 26 -29 26 -35 0 -6 62 -10 183
-10 165 0 186 2 200 18 23 25 21 65 -7 144 -56 159 -206 289 -362 315 l-49 8
-3 80 c-4 104 -34 142 -75 97z m198 -310 c73 -36 134 -93 174 -164 51 -88 50
-88 -89 -88 -91 0 -129 4 -152 16 -49 26 -127 29 -173 8 -48 -22 -295 -37
-295 -18 0 27 65 138 105 178 108 112 283 139 430 68z"/>
<path d="M7102 8823 c-6 -10 -13 -259 -17 -554 -6 -477 -6 -539 9 -566 8 -17
23 -33 31 -37 9 -3 160 -6 334 -6 l318 0 6 -122 c14 -261 7 -331 -40 -368 -25
-20 -37 -20 -590 -20 -622 0 -615 1 -653 -62 -16 -26 -20 -50 -20 -120 l0 -88
43 0 42 0 -3 76 c-6 125 -63 114 587 114 334 0 570 4 591 10 41 11 94 61 109
103 7 17 11 119 11 253 l0 224 323 0 324 0 21 23 22 23 0 551 c0 488 -2 553
-16 567 -14 14 -93 16 -719 16 -661 0 -705 -1 -713 -17z m1356 -460 l2 -383
-640 0 -640 0 0 378 c0 208 2 381 4 383 2 2 289 4 638 4 l633 0 3 -382z m-692
-513 c-4 -23 0 -36 14 -50 40 -40 90 -18 90 40 l0 40 295 0 296 0 -3 -67 -3
-68 -485 0 c-267 -1 -554 1 -637 3 l-153 4 0 64 0 64 296 0 297 0 -7 -30z"/>
<path d="M8258 8601 c-19 -16 -21 -23 -13 -47 8 -22 18 -30 41 -32 40 -4 61
20 48 55 -13 36 -47 47 -76 24z"/>
<path d="M7326 8597 c-10 -8 -18 -26 -18 -41 0 -48 49 -63 76 -24 20 29 20 34
-4 58 -24 24 -30 24 -54 7z"/>
<path d="M7317 8162 c-21 -23 -22 -46 -1 -66 38 -38 106 2 82 48 -21 40 -55
47 -81 18z"/>
<path d="M8252 8168 c-7 -7 -12 -24 -12 -38 0 -14 5 -31 12 -38 7 -7 24 -12
38 -12 32 0 50 17 50 46 0 44 -58 72 -88 42z"/>
<path d="M11020 8738 c-114 -58 -124 -203 -19 -280 64 -48 144 -40 210 19 141
128 -20 349 -191 261z m148 -121 c17 -34 0 -74 -40 -96 -24 -14 -30 -14 -61 1
-88 42 -33 169 58 134 17 -7 36 -24 43 -39z"/>
<path d="M10497 8672 c-10 -10 -17 -28 -17 -40 0 -28 34 -62 60 -62 11 0 29 9
40 20 11 11 20 29 20 40 0 27 -35 60 -63 60 -13 0 -31 -8 -40 -18z"/>
<path d="M5619 8616 c-149 -40 -264 -170 -292 -330 l-11 -66 -106 0 c-85 0
-111 -4 -136 -19 -61 -37 -84 -142 -44 -206 43 -69 -15 -65 862 -65 778 0 794
0 826 20 81 50 87 166 11 234 -46 42 -33 40 -263 41 l-179 0 -11 46 c-26 100
-127 179 -229 179 -47 0 -51 3 -115 68 -63 65 -71 70 -148 90 -91 25 -101 25
-165 8z m153 -112 c56 -19 120 -72 149 -124 l23 -40 81 0 c68 0 87 -4 109 -21
36 -29 54 -67 62 -133 l7 -56 221 0 c163 0 226 -3 238 -12 23 -18 30 -51 16
-70 -12 -14 -95 -16 -776 -21 -742 -5 -764 -5 -783 14 -24 24 -24 44 1 69 19
19 33 20 458 20 424 0 439 1 457 20 17 18 17 21 1 45 l-16 25 -296 0 c-334 0
-315 -6 -295 85 36 159 193 251 343 199z"/>
<path d="M8761 8574 c-26 -19 -27 -45 -3 -67 24 -22 35 -21 57 3 16 17 17 23
5 45 -17 32 -33 37 -59 19z"/>
<path d="M8757 8402 c-22 -24 -21 -45 1 -65 24 -22 35 -21 55 1 22 24 21 45
-1 65 -24 22 -35 21 -55 -1z"/>
<path d="M10277 8333 c-11 -11 -8 -48 5 -61 7 -7 42 -12 88 -12 82 0 127 -18
152 -62 7 -13 15 -66 18 -118 l5 -95 35 0 35 0 3 80 c4 96 -10 151 -49 198
-45 55 -104 77 -202 77 -46 0 -87 -3 -90 -7z"/>
<path d="M12777 8152 c-26 -28 -21 -69 9 -88 24 -16 27 -16 52 3 37 27 39 56
6 82 -33 26 -46 26 -67 3z"/>
<path d="M11686 8078 c-13 -19 -14 -25 -2 -43 20 -30 52 -31 72 0 16 24 16 27
-1 45 -24 26 -50 25 -69 -2z"/>
<path d="M12007 8093 c-4 -3 -7 -32 -7 -64 0 -56 -2 -59 -40 -90 -39 -32 -40
-34 -40 -95 0 -64 1 -67 55 -112 26 -23 27 -25 23 -123 -3 -89 -1 -102 15
-111 10 -5 29 -7 43 -4 24 6 24 8 24 116 0 61 3 110 8 110 4 0 22 13 40 29 30
28 32 35 32 94 0 62 -1 64 -40 96 -39 31 -40 33 -40 96 l0 65 -33 0 c-19 0
-37 -3 -40 -7z"/>
<path d="M12332 8088 c-36 -36 7 -91 54 -69 42 19 26 81 -21 81 -12 0 -26 -5
-33 -12z"/>
<path d="M8875 8006 c-99 -43 -123 -173 -47 -254 132 -141 358 62 235 209 -47
55 -123 73 -188 45z m110 -101 c30 -29 32 -58 5 -85 -41 -41 -110 -14 -110 43
0 64 60 88 105 42z"/>
<path d="M10558 7919 c-21 -12 -24 -59 -6 -77 7 -7 21 -12 33 -12 44 0 61 52
27 83 -21 19 -30 20 -54 6z"/>
<path d="M10090 7892 c-104 -52 -108 -207 -7 -255 19 -9 51 -17 69 -17 l35 0
6 -121 c4 -67 4 -125 1 -130 -3 -5 -132 -9 -289 -9 l-284 0 -3 88 -3 87 -37 3
-38 3 0 -90 0 -91 -213 0 c-252 0 -296 -9 -357 -71 -70 -72 -70 -72 -70 -626
l0 -493 -48 0 c-101 0 -219 -40 -432 -147 -5 -3 -7 399 -2 673 l2 162 24 6
c41 10 93 67 106 115 14 53 7 98 -23 142 -37 55 -82 79 -147 79 -66 0 -110
-24 -147 -79 -51 -75 -17 -204 64 -248 l33 -18 -2 -460 -3 -460 -232 -3 -233
-2 0 -41 0 -40 165 2 c91 1 168 -1 171 -4 3 -3 -19 -41 -49 -84 -30 -43 -66
-102 -81 -130 l-26 -53 -300 0 c-289 0 -300 1 -310 20 -15 29 -63 50 -111 50
-33 0 -47 -6 -75 -34 -28 -28 -34 -41 -34 -77 0 -129 145 -175 220 -69 l21 30
275 0 c304 0 286 5 259 -71 -21 -60 -46 -232 -43 -299 2 -38 -1 -55 -9 -56 -7
-1 -24 -2 -38 -3 -22 -1 -25 -6 -25 -36 0 -35 1 -35 43 -35 l43 0 23 -77 c48
-167 172 -372 276 -457 25 -21 45 -42 45 -47 0 -5 -237 -9 -604 -9 -575 0
-604 1 -627 19 -13 10 -30 36 -38 57 -24 70 -45 84 -125 84 l-71 0 -19 45
c-39 95 -140 165 -237 165 -58 0 -144 -36 -178 -76 -51 -57 -64 -93 -65 -169
0 -59 4 -78 27 -117 63 -108 183 -155 298 -117 57 20 119 78 146 136 l24 53
58 0 c56 0 57 -1 70 -35 17 -48 58 -95 98 -111 26 -11 151 -14 653 -14 l620 0
0 -144 c0 -79 3 -164 6 -190 7 -46 7 -46 47 -46 l39 0 -7 185 c-6 144 -4 185
5 185 7 0 36 -13 64 -29 99 -56 237 -94 376 -104 l35 -2 3 -692 c2 -674 2
-692 -17 -702 -25 -14 -55 -93 -47 -124 3 -14 19 -39 35 -56 66 -71 191 -16
191 85 0 32 -34 90 -61 104 -18 10 -19 32 -19 694 l0 683 31 7 c17 3 46 6 64
6 51 0 201 47 302 95 l93 44 2 -197 3 -197 40 0 40 0 0 195 0 195 188 3 187 2
0 40 0 40 -175 0 c-96 0 -175 4 -175 8 0 4 27 34 61 67 102 102 206 279 250
426 l22 76 66 7 c36 3 434 6 884 6 l817 0 0 -415 c0 -358 -2 -420 -16 -446
-15 -31 -66 -59 -104 -59 -17 0 -20 -6 -20 -41 l0 -42 47 7 c62 8 117 46 145
99 23 41 23 49 28 467 l5 425 65 -1 c62 -1 66 -3 82 -33 36 -71 89 -102 174
-102 69 0 134 35 166 91 l23 39 140 3 140 3 33 -27 c36 -31 69 -35 110 -14 76
39 65 143 -19 174 -36 14 -72 4 -109 -29 l-32 -30 -131 3 -131 3 -9 35 c-26
102 -131 152 -247 120 -45 -12 -95 -64 -113 -115 l-14 -40 -64 0 -64 0 -3 313
-2 312 357 0 c346 0 357 -1 379 -21 26 -24 95 -29 121 -8 9 8 22 29 30 47 12
28 11 37 -2 66 -29 62 -95 73 -148 26 l-35 -30 -351 0 -351 0 0 695 c0 767 3
735 -63 803 -53 56 -102 76 -187 76 l-75 1 -3 -37 -3 -38 71 0 c80 0 111 -15
152 -73 l23 -32 5 -698 5 -697 -172 0 -173 0 0 140 0 140 -40 0 -40 0 0 -140
0 -140 -161 0 c-91 0 -169 -4 -180 -10 -23 -13 -25 -55 -3 -64 9 -3 90 -6 180
-6 l164 0 0 -126 c0 -147 -11 -179 -69 -212 -33 -19 -54 -22 -151 -22 -116 0
-150 -9 -150 -38 0 -36 20 -42 150 -42 146 0 185 13 241 79 49 56 59 98 59
240 l0 121 170 0 170 0 0 -315 0 -315 -877 2 -878 3 3 41 c6 80 -24 292 -53
367 -7 16 5 17 159 17 l166 0 0 40 0 40 -180 0 -180 0 -28 51 c-15 28 -53 86
-84 129 -31 43 -54 81 -51 84 4 3 173 6 377 6 240 0 385 4 411 11 53 15 129
91 144 144 7 27 11 220 11 593 l0 553 -37 -3 -38 -3 -5 -105 -5 -105 -62 -3
c-86 -4 -144 22 -172 77 -18 34 -21 59 -21 156 l0 115 513 2 512 3 0 35 0 35
-515 5 -514 5 -1 230 c0 251 -2 259 -59 294 -41 26 -80 27 -126 3z m92 -84
c27 -22 30 -53 7 -81 -11 -15 -28 -27 -38 -27 -29 0 -61 30 -61 57 0 51 54 81
92 51z m-645 -710 c-4 -99 -7 -220 -7 -267 l0 -86 -33 -15 c-41 -19 -77 -74
-77 -117 0 -93 99 -166 180 -133 96 40 119 183 40 242 l-30 22 0 268 0 268
293 -2 292 -3 6 -125 c6 -140 12 -161 66 -221 51 -56 85 -69 188 -69 l85 0 0
-405 c0 -445 0 -448 -59 -498 l-33 -27 -444 0 -445 0 2 198 1 197 -38 0 -39 0
-3 -157 c-1 -87 -4 -158 -6 -158 -2 0 -35 18 -72 40 -113 66 -228 104 -354
118 l-65 7 -3 490 -2 490 22 44 c39 76 57 81 317 81 l224 0 -6 -182z m-549
-1138 c31 -30 37 -63 16 -99 -28 -47 -81 -55 -119 -16 -70 69 31 182 103 115z
m317 -125 c109 -61 216 -167 277 -275 28 -49 81 -207 73 -219 -2 -4 -21 -7
-41 -7 -36 2 -37 3 -50 53 -29 114 -89 209 -186 297 -59 53 -202 136 -235 136
-12 0 -14 8 -8 37 4 21 9 41 11 45 6 9 80 -22 159 -67z m-581 10 c6 -29 4 -31
-86 -73 -122 -59 -225 -159 -285 -279 -23 -44 -44 -100 -48 -122 -6 -36 -10
-41 -33 -41 -68 1 -66 33 9 186 77 158 199 278 359 353 69 33 72 32 84 -24z
m297 -185 c187 -35 347 -198 380 -388 l11 -62 70 0 c55 0 75 4 95 20 82 64
186 -33 122 -114 -24 -31 -73 -35 -120 -11 -21 11 -51 15 -102 13 l-72 -3 -7
-48 c-15 -110 -121 -263 -223 -322 -52 -31 -177 -65 -235 -65 -198 1 -380 138
-449 338 -11 34 -21 71 -21 82 0 18 -7 20 -83 20 -58 0 -89 -5 -103 -15 -66
-50 -166 23 -129 95 27 53 78 64 130 30 23 -15 47 -20 101 -20 l71 0 13 63
c23 120 86 222 183 295 70 52 86 60 170 82 83 22 123 24 198 10z m3132 -535
c31 -32 39 -71 23 -110 -17 -39 -37 -55 -78 -61 -100 -16 -151 96 -78 174 30
32 99 31 133 -3z m-3838 -184 c47 -143 236 -337 372 -382 32 -10 35 -14 29
-42 -11 -52 -20 -54 -94 -18 -162 80 -265 180 -343 334 -64 128 -64 154 -2
156 17 1 25 -9 38 -48z m1335 27 c-1 -31 -41 -126 -82 -195 -67 -112 -206
-228 -336 -281 l-53 -21 -9 23 c-19 51 -17 56 40 79 166 68 279 190 359 390 9
22 17 27 46 27 30 0 35 -3 35 -22z m-2983 -304 c43 -32 65 -69 70 -116 6 -53
-12 -93 -57 -131 -64 -55 -140 -53 -205 4 -81 72 -67 205 27 253 43 22 129 17
165 -10z m2324 -163 c36 -36 37 -73 4 -106 -26 -27 -54 -31 -88 -13 -54 28
-61 76 -18 119 16 16 39 29 51 29 12 0 35 -13 51 -29z"/>
<path d="M9207 7082 c-23 -25 -21 -58 3 -82 25 -25 52 -26 73 -2 23 26 21 55
-6 80 -28 27 -49 28 -70 4z"/>
<path d="M10025 6774 c-67 -34 -105 -96 -105 -168 0 -102 62 -173 167 -191 60
-10 142 28 178 83 63 96 33 222 -66 272 -47 24 -132 26 -174 4z"/>
<path d="M9830 6253 c-11 -15 -18 -33 -15 -41 3 -7 5 -17 5 -22 0 -18 33 -40
60 -40 19 0 36 9 49 26 27 34 26 50 -4 79 -32 33 -68 32 -95 -2z"/>
<path d="M10310 6246 c-33 -40 28 -100 64 -63 21 21 20 40 -2 60 -23 21 -46
22 -62 3z"/>
<path d="M8805 5442 c-97 -34 -180 -104 -211 -178 -23 -55 -19 -64 26 -64 35
0 43 4 64 38 33 51 63 77 119 102 139 62 303 19 385 -100 24 -35 31 -39 65
-38 21 1 41 6 43 10 9 14 -55 115 -97 153 -70 63 -139 89 -249 92 -71 2 -108
-2 -145 -15z"/>
<path d="M8856 5255 c-41 -14 -112 -77 -122 -107 -3 -10 -20 -21 -37 -26 -38
-10 -48 -43 -21 -73 26 -29 62 -24 93 12 58 70 91 96 135 109 41 11 49 10 90
-10 26 -12 66 -46 92 -76 39 -45 52 -54 80 -54 58 0 77 80 22 90 -15 3 -38 19
-50 36 -71 97 -180 135 -282 99z"/>
<path d="M8904 5070 c-31 -12 -64 -59 -64 -91 0 -94 106 -142 168 -76 47 50
33 130 -28 162 -32 17 -45 18 -76 5z"/>
<path d="M6526 4591 c-24 -27 -25 -85 -1 -111 28 -31 88 -27 114 6 43 54 10
124 -58 124 -25 0 -44 -7 -55 -19z"/>
<path d="M12813 7833 c-10 -3 -13 -39 -13 -132 l0 -127 -35 -17 c-73 -35 -109
-142 -72 -214 25 -47 83 -93 120 -94 87 -3 124 13 167 73 57 78 34 178 -52
231 l-49 31 2 116 c1 64 -1 122 -5 128 -7 12 -40 15 -63 5z m77 -373 c42 -42
14 -110 -44 -110 -37 0 -49 7 -65 37 -15 30 -14 36 10 67 25 32 70 35 99 6z"/>
<path d="M5866 7814 c-9 -8 -16 -22 -16 -29 0 -33 30 -45 109 -45 l78 0 6
-705 c7 -676 8 -707 27 -744 48 -94 133 -127 308 -118 l102 5 0 -67 c0 -120
63 -213 169 -249 23 -8 141 -12 377 -12 l344 0 0 40 0 40 -347 0 c-311 0 -352
2 -383 18 -48 24 -70 68 -77 151 l-6 71 201 0 c686 0 1061 4 1093 13 49 12
114 68 141 121 17 31 22 59 22 121 l1 80 -35 0 -35 0 -5 -77 c-6 -85 -22 -116
-80 -155 -32 -22 -41 -23 -254 -23 -156 0 -225 3 -234 12 -9 9 -20 9 -49 -1
-28 -9 -136 -11 -398 -9 l-360 3 -3 105 c-3 109 -9 125 -47 113 -31 -9 -35
-21 -35 -125 l0 -98 -122 0 c-136 0 -174 11 -212 63 -21 28 -21 38 -24 728
l-3 699 65 0 c68 0 96 14 96 49 0 37 -18 41 -211 41 -157 0 -190 -3 -203 -16z"/>
<path d="M5521 7728 c-13 -33 4 -60 36 -56 56 7 55 69 -1 76 -20 3 -28 -2 -35
-20z"/>
<path d="M10547 7743 c-4 -3 -7 -69 -7 -145 l0 -138 40 0 40 0 0 145 0 145
-33 0 c-19 0 -37 -3 -40 -7z"/>
<path d="M4835 7543 c-86 -18 -211 -76 -285 -131 -71 -54 -150 -148 -195 -233
-38 -72 -75 -199 -75 -256 l0 -33 212 2 212 3 13 95 c7 52 20 116 28 142 8 26
15 52 15 57 0 7 -43 11 -125 11 l-125 0 -6 26 c-4 17 -1 31 9 42 15 14 65 15
469 13 249 -1 456 -5 460 -7 12 -8 9 -49 -4 -62 -8 -8 -50 -12 -125 -12 -62 0
-113 -3 -113 -7 0 -5 7 -29 14 -55 8 -26 20 -92 27 -147 l12 -100 151 -3 151
-3 3 -26 c6 -52 -13 -58 -165 -52 l-138 5 -22 -138 c-12 -77 -25 -152 -29
-167 l-7 -28 112 2 c116 1 141 -6 141 -41 0 -10 -6 -22 -12 -28 -8 -6 -177
-11 -459 -13 -472 -4 -479 -4 -479 41 0 35 27 44 131 41 147 -4 141 -9 113
102 -12 50 -26 122 -29 160 l-7 67 -214 0 -214 0 0 -42 c1 -133 77 -302 191
-422 159 -168 355 -239 592 -215 298 30 545 245 612 534 36 155 30 267 -21
418 -79 234 -298 424 -538 466 -81 15 -197 12 -281 -6z m-267 -459 c17 -12 22
-24 20 -46 -4 -40 -28 -55 -65 -42 -34 12 -43 56 -17 85 21 23 33 24 62 3z
m886 -10 c43 -42 -19 -103 -70 -69 -42 27 -21 85 31 85 13 0 31 -7 39 -16z
m-866 -426 c6 -50 -43 -69 -86 -35 -21 16 -10 60 18 74 32 16 64 -3 68 -39z
m868 17 c16 -24 16 -27 -2 -46 -12 -13 -28 -19 -47 -17 -39 4 -55 28 -39 62
16 36 65 36 88 1z"/>
<path d="M6526 7429 c-15 -12 -26 -30 -26 -45 0 -30 41 -74 70 -74 29 0 70 44
70 74 0 27 -41 66 -70 66 -10 0 -29 -9 -44 -21z"/>
<path d="M6900 7430 c-51 -51 9 -138 75 -108 62 28 41 128 -27 128 -15 0 -37
-9 -48 -20z"/>
<path d="M7287 7430 c-47 -37 -25 -110 34 -110 51 0 69 16 69 59 0 42 -11 56
-50 66 -18 4 -34 0 -53 -15z"/>
<path d="M12008 7399 c-25 -14 -24 -65 1 -79 29 -15 39 -13 57 15 15 23 15 27
0 50 -18 27 -31 30 -58 14z"/>
<path d="M12002 7218 c-27 -27 -6 -68 35 -68 27 0 38 20 29 55 -7 27 -42 35
-64 13z"/>
<path d="M4850 7175 c-24 -63 -39 -136 -42 -205 l-3 -75 175 0 175 0 -2 60
c-3 71 -19 144 -44 203 l-18 42 -116 0 c-114 0 -116 0 -125 -25z m168 -97 c20
-20 14 -56 -13 -74 -23 -15 -27 -15 -50 0 -29 19 -32 42 -8 68 18 21 53 24 71
6z"/>
<path d="M12381 7163 c0 -5 10 -26 22 -48 l22 -40 188 -3 188 -2 -2 -80 c-2
-84 8 -110 42 -110 31 0 51 43 49 107 -1 32 -1 64 -1 70 1 9 48 13 183 15
l182 3 23 40 c12 22 23 43 23 48 0 4 -207 7 -460 7 -253 0 -460 -3 -459 -7z"/>
<path d="M12002 7048 c-35 -35 15 -99 53 -68 30 25 12 80 -25 80 -9 0 -21 -5
-28 -12z"/>
<path d="M11240 7041 c-55 -17 -90 -43 -116 -86 l-26 -45 -173 0 -174 0 -7
-34 c-3 -19 -3 -39 1 -45 4 -7 66 -11 174 -11 l168 0 11 -38 c14 -46 72 -109
118 -128 40 -17 112 -18 151 -3 33 12 89 64 108 99 52 100 5 233 -100 281 -41
19 -92 23 -135 10z m101 -96 c35 -19 69 -70 69 -105 -1 -54 -58 -110 -113
-110 -87 0 -148 102 -101 169 20 28 72 61 97 61 10 0 31 -7 48 -15z"/>
<path d="M7250 6923 c-40 -16 -75 -51 -94 -93 -15 -34 -58 -82 -156 -175 -145
-137 -167 -168 -135 -191 10 -8 24 -14 31 -14 7 0 67 52 132 115 66 63 124
115 130 115 6 0 19 -13 28 -30 10 -16 29 -34 43 -39 84 -33 137 -25 191 29
l39 39 115 -109 c64 -62 122 -110 133 -110 23 0 43 18 43 41 0 9 -61 76 -136
148 -90 88 -141 146 -153 174 -31 69 -69 98 -137 103 -33 2 -66 1 -74 -3z
m104 -104 c20 -16 26 -29 26 -58 0 -47 -28 -75 -75 -75 -69 0 -99 71 -54 128
25 32 66 34 103 5z"/>
<path d="M13466 6908 c-23 -32 -20 -54 10 -77 57 -45 116 28 62 79 -28 26 -53
25 -72 -2z"/>
<path d="M12000 6876 c-16 -20 -9 -56 13 -70 39 -24 79 44 41 71 -23 17 -39
16 -54 -1z"/>
<path d="M5850 6830 c-25 -25 -25 -32 -2 -60 25 -31 69 -21 78 17 5 20 2 31
-16 45 -28 23 -35 23 -60 -2z"/>
<path d="M4805 6800 c-7 -11 11 -168 26 -225 6 -22 18 -53 25 -68 l15 -28 112
3 111 3 23 75 c22 72 45 227 36 243 -6 11 -341 9 -348 -3z m213 -122 c7 -7 12
-21 12 -33 0 -29 -19 -45 -52 -45 -25 0 -48 23 -48 49 0 33 63 54 88 29z"/>
<path d="M7940 6780 c-27 -51 36 -95 72 -50 16 20 17 25 5 44 -20 29 -63 33
-77 6z"/>
<path d="M12001 6706 c-7 -8 -11 -25 -9 -38 2 -18 9 -23 32 -23 36 0 56 27 40
53 -14 22 -48 27 -63 8z"/>
<path d="M6397 6643 c-3 -27 -2 -52 2 -56 4 -4 59 -6 122 -5 l114 3 3 53 3 52
-119 0 -119 0 -6 -47z"/>
<path d="M10895 6586 c-50 -50 -42 -113 19 -142 44 -21 84 -9 109 34 33 56 -9
132 -73 132 -19 0 -40 -9 -55 -24z"/>
<path d="M13390 6538 c-53 -37 -74 -72 -74 -125 1 -58 23 -104 65 -134 136
-96 307 76 214 217 -42 64 -142 84 -205 42z m118 -84 c25 -17 29 -60 8 -89
-19 -27 -74 -24 -98 4 -24 31 -23 47 7 76 28 29 51 31 83 9z"/>
<path d="M11267 6513 c-4 -3 -7 -39 -7 -80 l0 -73 40 0 40 0 0 80 0 80 -33 0
c-19 0 -37 -3 -40 -7z"/>
<path d="M12167 6502 c-10 -10 -17 -28 -17 -40 0 -28 34 -62 60 -62 25 0 60
34 60 58 0 53 -68 82 -103 44z"/>
<path d="M12367 6502 c-37 -40 -9 -102 46 -102 29 0 57 32 57 66 0 47 -71 72
-103 36z"/>
<path d="M12565 6496 c-32 -48 5 -104 59 -90 13 3 29 17 37 31 32 60 -59 116
-96 59z"/>
<path d="M12956 6504 c-34 -33 -4 -104 44 -104 11 0 29 9 40 20 11 11 20 29
20 40 0 48 -71 78 -104 44z"/>
<path d="M11992 6498 c-17 -17 -15 -53 3 -68 38 -31 96 27 65 65 -15 18 -51
20 -68 3z"/>
<path d="M11974 6205 c-21 -32 -12 -67 21 -85 31 -16 52 -7 74 32 34 60 -57
110 -95 53z"/>
<path d="M12172 6218 c-7 -7 -12 -27 -12 -45 0 -24 7 -37 26 -50 24 -15 29
-15 53 -2 32 18 40 68 16 93 -19 19 -66 21 -83 4z"/>
<path d="M12566 6211 c-23 -25 -17 -59 15 -83 53 -40 112 21 75 77 -20 31 -65
34 -90 6z"/>
<path d="M4175 6160 c-27 -30 -7 -70 34 -70 52 0 64 65 15 84 -24 9 -29 8 -49
-14z"/>
<path d="M13622 6048 c-18 -18 -14 -53 8 -73 40 -37 95 19 63 64 -16 23 -52
28 -71 9z"/>
<path d="M7470 5890 l0 -40 45 0 45 0 0 40 0 40 -45 0 -45 0 0 -40z"/>
<path d="M7670 5890 l0 -40 45 0 45 0 0 40 0 40 -45 0 -45 0 0 -40z"/>
<path d="M13223 5740 c-204 -30 -338 -236 -284 -438 26 -95 131 -202 238 -242
192 -72 408 71 446 295 37 222 -167 419 -400 385z m163 -121 c143 -67 186
-229 98 -363 l-27 -41 -17 40 c-40 92 -148 142 -223 104 -39 -20 -86 -72 -98
-106 -6 -19 -16 -32 -22 -30 -20 6 -69 112 -74 159 -7 62 12 123 54 169 82 90
204 117 309 68z m-51 -384 c31 -30 31 -52 3 -82 -28 -30 -89 -32 -118 -3 -23
23 -24 30 -9 64 22 48 86 60 124 21z"/>
<path d="M4992 5668 c-18 -18 -15 -56 8 -85 l20 -26 -20 -14 c-37 -26 -18 -93
27 -93 49 0 69 54 33 90 l-20 20 22 30 c30 41 17 84 -27 88 -17 2 -36 -3 -43
-10z"/>
<path d="M5187 5673 c-12 -12 -7 -68 8 -90 13 -18 13 -22 0 -33 -9 -7 -15 -29
-15 -51 0 -33 4 -41 26 -50 21 -7 31 -6 45 7 23 21 25 71 3 95 -14 16 -14 20
7 48 20 27 21 33 9 56 -10 19 -21 25 -45 25 -17 0 -35 -3 -38 -7z"/>
<path d="M5378 5654 c-10 -21 -9 -31 6 -59 17 -31 17 -35 2 -50 -19 -19 -21
-66 -4 -83 18 -18 53 -15 71 6 21 23 22 52 3 77 -12 16 -12 24 2 52 22 46 5
83 -38 83 -23 0 -33 -6 -42 -26z"/>
<path d="M10420 5661 c-39 -20 -80 -89 -80 -132 0 -91 72 -159 167 -159 119 0
195 134 130 231 -51 76 -141 101 -217 60z"/>
<path d="M6761 5551 c-24 -24 -17 -59 15 -73 19 -9 28 -8 44 7 25 23 25 40 0
65 -25 25 -35 25 -59 1z"/>
<path d="M6977 5552 c-24 -26 -21 -49 7 -67 29 -19 54 -10 63 23 4 19 1 30
-17 44 -28 22 -33 22 -53 0z"/>
<path d="M10925 5545 c-30 -29 -31 -39 -5 -65 22 -22 60 -26 78 -8 20 20 14
65 -10 82 -30 21 -35 20 -63 -9z"/>
<path d="M12083 5515 c-44 -31 -16 -115 37 -115 24 0 70 42 70 63 0 23 -32 55
-60 62 -15 3 -34 -1 -47 -10z"/>
<path d="M4253 5384 c-132 -65 -80 -274 67 -274 109 0 178 106 131 202 -39 80
-121 110 -198 72z"/>
<path d="M5025 5360 c-19 -8 -19 -9 2 -9 12 -1 25 4 28 9 7 12 -2 12 -30 0z"/>
<path d="M7327 5264 c-4 -4 -7 -49 -7 -101 l0 -93 -576 0 -575 0 3 -37 3 -38
573 -3 572 -2 0 -73 c0 -90 30 -161 86 -203 l37 -29 239 -3 238 -3 11 25 c9
20 9 29 -1 41 -10 13 -47 15 -235 15 l-222 0 -28 28 c-37 36 -45 62 -45 137
l0 65 168 2 167 3 0 39 0 39 -165 1 -165 1 -5 95 -5 95 -30 3 c-17 2 -34 0
-38 -4z"/>
<path d="M5850 5188 c-34 -17 -51 -35 -69 -70 l-23 -48 -337 0 -338 0 -22 24
c-33 35 -71 46 -107 31 -38 -16 -54 -36 -60 -77 -5 -27 -1 -41 20 -65 33 -40
74 -50 116 -28 17 9 34 23 37 31 4 12 54 13 356 7 347 -6 352 -7 369 -28 43
-54 134 -70 198 -34 104 59 99 202 -10 257 -24 12 -54 22 -65 22 -11 0 -41
-10 -65 -22z"/>
<path d="M13690 4920 c-22 -42 19 -92 59 -71 27 15 34 41 16 67 -19 30 -60 32
-75 4z"/>
<path d="M4495 4865 c-60 -35 -114 -67 -120 -69 -13 -6 13 -27 117 -91 111
-70 123 -72 181 -41 72 38 186 110 187 118 0 6 -209 131 -240 143 -9 3 -62
-22 -125 -60z"/>
<path d="M13150 4820 c-24 -24 -25 -48 -4 -78 30 -43 104 -17 104 36 0 28 -34
62 -60 62 -11 0 -29 -9 -40 -20z"/>
<path d="M12476 4771 c-23 -25 -13 -59 20 -67 46 -12 72 37 38 70 -21 21 -37
20 -58 -3z"/>
<path d="M9960 4705 l0 -45 45 0 45 0 0 45 0 45 -45 0 -45 0 0 -45z"/>
<path d="M7126 4719 c-30 -23 -33 -45 -10 -77 21 -31 69 -30 90 3 20 31 11 61
-26 80 -26 13 -30 13 -54 -6z"/>
<path d="M4160 4485 l0 -225 45 0 45 0 0 40 c0 37 11 52 24 32 13 -21 347
-214 361 -208 8 3 85 49 171 101 85 53 162 99 170 102 11 4 14 -4 14 -31 l0
-36 45 0 45 0 -2 223 c-3 216 -4 222 -24 225 -12 2 -88 -38 -190 -99 -93 -56
-187 -110 -209 -121 l-41 -20 -174 105 c-208 124 -233 137 -260 137 -20 0 -20
-5 -20 -225z m180 30 c95 -61 264 -155 279 -155 11 0 257 137 333 186 21 13
40 24 43 24 3 0 5 -24 5 -54 l0 -54 -167 -104 c-93 -58 -178 -110 -190 -117
-25 -13 -26 -12 -265 129 l-127 75 -1 63 c0 48 3 61 13 56 6 -5 41 -27 77 -49z"/>
<path d="M5880 4670 l0 -41 38 3 c35 3 37 5 37 38 0 33 -2 35 -37 38 l-38 3 0
-41z"/>
<path d="M12078 4663 c-28 -32 -30 -58 -7 -86 25 -33 58 -34 87 -4 28 30 28
52 -3 82 -28 29 -56 32 -77 8z"/>
<path d="M5466 4598 c-9 -12 -16 -29 -16 -38 0 -27 30 -60 54 -60 49 0 75 70
38 103 -26 23 -58 21 -76 -5z"/>
<path d="M12604 4566 c-38 -17 -71 -57 -85 -105 -7 -23 -9 -152 -7 -369 l3
-332 -731 0 -732 0 -5 -32 c-2 -18 -3 -36 0 -40 2 -5 352 -8 776 -8 650 -1
776 -3 797 -15 20 -12 85 -14 332 -15 l306 0 10 -28 c28 -80 109 -131 208
-132 54 0 62 3 74 25 20 37 -1 55 -62 55 -54 0 -102 20 -118 49 -20 39 -14 40
123 34 154 -7 187 2 233 63 l29 37 3 351 c3 348 2 351 -20 396 -42 83 -23 80
-598 80 -400 -1 -511 -4 -536 -14z m1040 -99 c22 -22 23 -28 29 -317 3 -164 2
-312 -3 -334 -17 -75 15 -71 -525 -71 l-483 0 -26 24 -26 24 0 326 c0 320 0
325 22 348 l21 23 484 0 484 0 23 -23z"/>
<path d="M12707 4383 c-10 -9 -8 -466 1 -481 7 -10 98 -12 438 -10 l429 3 3
248 2 247 -433 0 c-239 0 -437 -3 -440 -7z m287 -109 c9 -8 16 -19 16 -24 0
-5 -7 -16 -16 -24 -12 -12 -37 -16 -104 -16 -50 0 -92 4 -95 10 -4 6 -4 24 0
40 l7 30 88 0 c67 0 92 -4 104 -16z m220 -200 c9 -8 16 -21 16 -28 0 -33 -27
-36 -231 -34 l-204 3 -3 23 c-8 52 -7 52 207 52 168 0 202 -2 215 -16z"/>
<path d="M5880 4350 c0 -224 4 -242 64 -300 l37 -35 934 -3 935 -2 14 -33 c8
-21 25 -38 45 -46 l31 -13 0 -294 c0 -271 2 -297 20 -348 36 -94 111 -141 215
-134 50 3 50 3 53 39 l3 37 -70 4 c-51 3 -75 9 -92 23 -46 41 -49 66 -49 373
l0 288 31 23 c97 72 53 217 -69 229 -46 4 -52 2 -90 -33 l-41 -36 -903 -3
c-497 -2 -914 1 -929 6 -52 18 -60 50 -62 260 l-2 193 -37 3 -38 3 0 -201z"/>
<path d="M10645 4541 c-133 -7 -146 -12 -200 -85 l-31 -41 -189 -5 -190 -5 -3
-37 -3 -38 192 0 c216 0 228 3 289 80 20 25 45 43 68 50 20 5 125 10 232 10
l195 0 33 -55 c49 -81 61 -85 260 -85 140 0 172 3 182 15 10 12 10 21 2 40
l-12 25 -164 0 -164 0 -24 31 c-13 16 -37 47 -55 67 l-31 37 -134 1 c-73 1
-187 -2 -253 -5z"/>
<path d="M10695 4258 c-44 -15 -103 -76 -118 -122 l-14 -41 -88 -3 c-49 -2
-94 -7 -100 -12 -6 -5 -10 -23 -7 -40 l4 -30 94 0 94 0 21 -45 c23 -49 66 -91
116 -112 39 -16 121 -17 160 -2 39 14 98 74 118 120 l18 39 88 0 c86 0 89 1
95 25 12 49 2 55 -95 55 l-89 0 -12 34 c-14 45 -71 110 -114 130 -38 18 -125
20 -171 4z"/>
<path d="M9802 4078 c-7 -7 -12 -21 -12 -33 0 -45 60 -63 80 -24 23 41 -35 90
-68 57z"/>
<path d="M9995 4066 c-18 -26 -11 -52 16 -67 28 -15 59 6 59 39 0 53 -47 71
-75 28z"/>
<path d="M10192 4078 c-18 -18 -14 -53 8 -73 17 -15 24 -16 45 -7 25 12 32 41
19 76 -7 19 -55 21 -72 4z"/>
<path d="M11282 4078 c-28 -28 -7 -78 33 -78 27 0 45 18 45 45 0 27 -18 45
-45 45 -12 0 -26 -5 -33 -12z"/>
<path d="M9171 4031 c-26 -26 -26 -35 1 -61 26 -24 29 -24 52 -7 23 17 18 55
-11 74 -19 13 -24 12 -42 -6z"/>
<path d="M4931 3994 c-25 -32 -25 -33 -5 -62 17 -24 62 -30 82 -10 20 20 14
65 -10 82 -31 22 -43 20 -67 -10z"/>
<path d="M4295 3940 c-15 -16 -17 -26 -9 -48 8 -22 15 -27 44 -27 29 0 36 5
44 27 8 22 6 32 -9 48 -10 11 -26 20 -35 20 -9 0 -25 -9 -35 -20z"/>
<path d="M8344 3856 c-3 -8 -4 -27 -2 -43 3 -25 7 -28 38 -28 34 0 35 1 35 40
0 38 -2 40 -33 43 -21 2 -34 -2 -38 -12z"/>
<path d="M9474 3823 c-9 -35 7 -58 41 -58 34 0 50 23 41 58 -5 23 -12 27 -41
27 -29 0 -36 -4 -41 -27z"/>
<path d="M9892 3739 c-60 -30 -95 -85 -100 -160 l-4 -59 41 0 41 0 0 50 c0 42
5 55 25 74 14 13 39 26 56 30 18 3 177 6 355 6 l324 0 0 40 0 40 -347 0 c-336
0 -350 -1 -391 -21z"/>
<path d="M6425 3741 c-11 -5 -31 -21 -45 -36 l-25 -27 0 -495 0 -495 37 -34
38 -34 551 0 c542 0 551 0 580 21 60 42 59 34 59 554 l0 475 -34 38 -34 37
-554 2 c-304 1 -562 -2 -573 -6z m1095 -149 l0 -49 -407 -6 c-225 -3 -463 -3
-530 0 l-123 6 0 48 0 49 530 0 530 0 0 -48z m-2 -167 c9 -3 12 -19 10 -47
l-3 -43 -70 -5 -70 -5 -3 -47 -3 -48 71 0 71 0 -3 -42 c-2 -32 -7 -42 -23 -44
-11 -2 -251 -1 -533 3 l-513 6 3 36 3 36 55 3 c67 4 80 14 80 63 l0 38 -67 3
-68 3 -3 39 c-2 21 -1 43 1 50 3 8 142 10 528 8 288 -2 530 -5 537 -7z m10
-430 c1 -22 -1 -46 -6 -52 -6 -10 -125 -11 -540 -6 l-532 6 0 49 0 48 538 -2
537 -3 3 -40z m-8 -215 l0 -50 -514 0 c-283 0 -521 -3 -530 -6 -13 -5 -16 3
-16 50 l0 56 530 0 530 0 0 -50z"/>
<path d="M8340 3191 l0 -508 -22 -34 c-14 -20 -44 -44 -75 -59 -65 -32 -65
-32 -57 -64 18 -75 195 30 224 133 6 22 10 238 10 539 l0 502 -40 0 -40 0 0
-509z"/>
<path d="M4669 3658 c-19 -13 -44 -43 -56 -68 -22 -42 -23 -55 -23 -280 0
-225 1 -238 23 -280 12 -25 37 -55 56 -67 l34 -23 586 0 c567 0 587 1 619 20
18 11 41 34 52 52 19 31 20 51 20 295 0 286 -3 307 -58 348 -26 19 -45 20
-623 23 l-595 2 -35 -22z m221 -93 c38 -20 60 -63 60 -118 0 -39 -5 -49 -35
-76 -80 -70 -214 -18 -215 84 -1 90 108 152 190 110z m795 -45 l0 -45 -287 -3
-288 -2 0 50 0 50 288 -2 287 -3 0 -45z m153 2 l3 -43 -33 3 c-29 3 -33 7 -36
37 -4 37 10 53 43 49 16 -2 21 -12 23 -46z m-148 -201 c0 -64 15 -61 -296 -61
l-284 0 0 45 0 45 290 0 290 0 0 -29z m158 -13 l3 -38 -40 0 -41 0 0 41 0 40
38 -3 c35 -3 37 -5 40 -40z m-983 -28 c25 0 75 -52 86 -90 23 -77 -35 -150
-121 -150 -141 0 -177 188 -45 235 22 8 46 12 53 10 8 -3 20 -5 27 -5z m728
-137 l98 -6 -3 -36 -3 -36 -95 -8 c-52 -4 -180 -6 -285 -5 l-190 3 -3 33 c-6
63 -11 62 195 62 103 0 232 -3 286 -7z m255 -40 c-3 -36 -5 -38 -40 -41 -37
-3 -38 -2 -38 31 0 42 5 47 47 47 33 0 34 -1 31 -37z"/>
<path d="M4776 3498 c-22 -32 -20 -61 7 -86 27 -26 54 -28 85 -6 28 19 30 74
4 97 -27 25 -78 22 -96 -5z"/>
<path d="M4780 3210 c-25 -25 -26 -61 -2 -90 26 -32 70 -30 99 4 28 33 29 46
2 80 -25 32 -70 35 -99 6z"/>
<path d="M9480 3635 c0 -45 0 -45 35 -45 35 0 35 0 35 45 0 45 0 45 -35 45
-35 0 -35 0 -35 -45z"/>
<path d="M9482 3323 l3 -188 26 -3 c46 -5 50 12 47 199 l-3 174 -38 3 -37 3 2
-188z"/>
<path d="M12154 3463 c-41 -29 -35 -97 10 -109 38 -9 59 -1 75 28 14 25 14 29
-5 55 -21 28 -59 40 -80 26z"/>
<path d="M10985 3436 c-13 -9 -18 -24 -16 -47 1 -19 3 -119 4 -224 l2 -190
-122 -3 -122 -3 -3 -77 -3 -77 -207 -5 c-190 -5 -209 -7 -235 -26 -64 -48 -64
-47 -65 -438 l-1 -356 27 -40 c52 -79 12 -75 726 -75 710 0 669 -4 727 72 l28
36 3 350 c3 333 2 351 -17 391 -35 71 -61 80 -251 86 l-165 5 -3 78 -3 77
-102 0 c-56 0 -108 4 -115 9 -10 6 -12 47 -9 187 3 98 8 195 12 215 6 31 4 39
-16 53 -29 20 -49 20 -74 2z m630 -741 l25 -24 0 -325 c0 -323 0 -325 -22
-350 l-23 -26 -610 0 c-335 -1 -615 -1 -622 0 -7 0 -21 10 -33 22 -19 21 -20
33 -20 354 l0 333 26 20 c26 21 35 21 641 21 l614 0 24 -25z"/>
<path d="M10410 2340 l0 -270 288 2 287 3 2 268 2 267 -289 0 -290 0 0 -270z"/>
<path d="M11234 2551 c-42 -19 -84 -62 -111 -115 -24 -46 -21 -134 6 -187 47
-91 109 -132 201 -132 97 0 163 40 206 125 61 121 0 275 -125 317 -49 16 -130
12 -177 -8z m176 -99 c14 -11 34 -40 44 -65 26 -63 12 -116 -42 -152 -119 -81
-268 58 -189 176 45 67 127 85 187 41z"/>
<path d="M11323 2340 c-1 -11 4 -20 13 -20 8 0 14 9 14 20 0 11 -6 20 -13 20
-7 0 -13 -9 -14 -20z"/>
<path d="M9790 3338 c0 -117 16 -166 68 -210 60 -50 70 -51 571 -46 l466 5 0
39 0 39 -486 3 -486 2 -24 26 c-21 23 -25 37 -29 132 l-5 107 -37 3 -38 3 0
-103z"/>
<path d="M13105 3326 c-98 -45 -119 -165 -40 -234 63 -56 138 -51 194 13 39
45 47 89 26 143 -30 73 -113 109 -180 78z"/>
<path d="M11901 3247 c-25 -74 -13 -71 -405 -77 l-351 -5 -3 -37 -3 -37 348
-3 c389 -3 390 -3 451 67 55 62 57 118 5 123 -28 3 -32 -1 -42 -31z"/>
<path d="M8604 3195 c-12 -47 -1 -55 76 -55 l70 0 0 40 0 40 -70 0 c-66 0 -70
-1 -76 -25z"/>
<path d="M12445 3170 c-3 -5 -19 -10 -34 -10 -86 0 -229 -120 -273 -228 -22
-56 -23 -65 -23 -382 l0 -325 27 -56 c33 -67 106 -141 165 -169 62 -29 168
-42 239 -29 85 16 142 46 205 109 44 44 61 70 83 130 l27 76 -3 299 -3 300
-27 58 c-37 79 -127 167 -198 194 -121 45 -172 54 -185 33z m165 -130 c92 -46
147 -126 152 -221 l3 -54 -279 -3 -279 -2 5 63 c3 35 15 81 26 104 28 53 94
110 152 128 63 21 163 14 220 -15z m155 -455 l0 -40 -117 -3 -118 -3 0 40 0
40 58 4 c31 2 84 3 117 3 l60 -1 0 -40z m-325 -5 c0 -24 -5 -43 -13 -45 -7 -3
-57 -2 -112 2 l-100 8 -3 38 -3 37 115 0 116 0 0 -40z m160 -170 c0 -39 -1
-40 -34 -40 -36 0 -49 20 -39 60 4 15 14 20 39 20 33 0 34 -1 34 -40z m-172
-7 c-3 -38 -3 -38 -53 -34 -10 1 -15 12 -15 36 0 33 2 35 36 35 35 0 35 -1 32
-37z m76 -79 c11 -4 16 -19 16 -46 l0 -39 -37 3 c-35 3 -38 6 -41 37 -4 44 20
61 62 45z m-166 -41 l-3 -38 -57 -3 -58 -3 0 41 0 40 61 0 60 0 -3 -37z m409
0 l-2 -38 -57 -3 -58 -3 0 41 0 40 60 0 59 0 -2 -37z m-317 -143 c0 -39 -1
-40 -35 -40 -34 0 -35 1 -35 40 0 39 1 40 35 40 34 0 35 -1 35 -40z m170 0 c0
-39 -1 -40 -35 -40 -34 0 -35 1 -35 40 0 39 1 40 35 40 34 0 35 -1 35 -40z"/>
<path d="M12325 2920 c-37 -40 18 -105 60 -70 22 18 19 67 -4 80 -27 14 -35
13 -56 -10z"/>
<path d="M12602 2924 c-27 -18 -28 -45 -4 -67 23 -21 46 -22 62 -3 16 21 9 56
-15 72 -18 12 -24 11 -43 -2z"/>
<path d="M9445 2967 c-116 -66 -113 -241 5 -305 89 -47 197 -17 240 68 22 43
26 119 9 153 -17 32 -60 77 -91 93 -41 21 -116 17 -163 -9z"/>
<path d="M7931 2883 c-23 -11 -40 -31 -53 -59 -17 -40 -17 -45 -2 -83 51 -128
228 -92 226 45 0 42 -25 79 -67 98 -42 20 -61 20 -104 -1z m79 -77 c19 -24 8
-61 -19 -64 -29 -4 -53 22 -44 46 12 33 43 41 63 18z"/>
<path d="M9956 2774 c-22 -22 -20 -41 8 -69 28 -28 62 -24 78 11 24 51 -46 98
-86 58z"/>
<path d="M5182 2633 c-18 -7 -42 -57 -42 -88 0 -107 137 -131 170 -30 13 40
-6 97 -38 114 -21 11 -67 13 -90 4z"/>
<path d="M5861 2600 c-64 -14 -148 -68 -184 -119 -96 -139 -89 -285 19 -439
52 -74 218 -242 239 -242 16 0 173 165 232 244 89 121 104 257 42 384 -32 65
-100 131 -166 158 -43 19 -129 25 -182 14z m179 -122 c123 -74 151 -248 60
-366 -12 -15 -56 -62 -98 -105 l-77 -78 -83 86 c-126 129 -163 227 -127 335
34 102 109 159 210 160 51 0 70 -5 115 -32z"/>
<path d="M6963 2345 c-49 -34 -33 -120 26 -144 72 -30 131 68 80 133 -24 30
-71 35 -106 11z"/>
<path d="M7770 2335 c-47 -50 -13 -135 55 -135 69 0 108 99 56 141 -33 27 -82
24 -111 -6z"/>
<path d="M8512 2329 c-20 -6 -40 -22 -52 -42 -19 -30 -20 -53 -20 -469 l0
-438 -100 0 c-55 0 -100 -3 -100 -7 0 -25 47 -96 74 -113 33 -20 46 -20 867
-20 932 0 853 -6 910 73 47 64 43 67 -76 67 l-105 0 0 430 c0 476 0 472 -63
510 -31 19 -54 20 -667 19 -368 0 -649 -5 -668 -10z m1288 -99 c13 -8 15 -57
18 -322 2 -172 0 -323 -3 -336 l-5 -22 -633 2 -632 3 -3 343 -2 342 622 0
c375 0 629 -4 638 -10z m-556 -761 c20 -16 26 -29 26 -59 0 -43 -14 -59 -63
-67 -67 -11 -104 72 -55 124 27 29 57 29 92 2z"/>
<path d="M7217 2323 c-4 -3 -7 -21 -7 -40 l0 -33 60 0 60 0 0 40 0 40 -53 0
c-30 0 -57 -3 -60 -7z"/>
<path d="M7480 2290 l0 -41 58 3 57 3 0 35 0 35 -57 3 -58 3 0 -41z"/>
<path d="M6452 2298 c-20 -20 -14 -66 9 -79 33 -17 69 3 69 39 0 33 -16 52
-45 52 -12 0 -26 -5 -33 -12z"/>
<path d="M6687 2172 c-22 -24 -21 -45 1 -65 24 -22 45 -21 66 2 26 29 -1 81
-43 81 -4 0 -15 -8 -24 -18z"/>
<path d="M11922 2044 c-30 -21 -28 -59 3 -80 24 -16 27 -16 46 2 25 22 22 62
-6 80 -18 12 -24 11 -43 -2z"/>
<path d="M7333 1979 c-80 -23 -137 -122 -114 -199 24 -81 87 -130 169 -130 78
0 146 57 158 132 14 83 -24 154 -101 189 -44 20 -64 22 -112 8z m102 -114 c14
-13 25 -36 25 -50 0 -33 -41 -75 -73 -75 -39 0 -77 36 -77 73 0 68 77 101 125
52z"/>
<path d="M6444 1785 c-35 -54 37 -115 78 -65 22 27 23 39 2 68 -21 30 -59 29
-80 -3z"/>
<path d="M8172 1778 c-30 -30 8 -85 51 -74 32 8 41 33 22 62 -17 26 -53 32
-73 12z"/>
<path d="M10115 1650 c-38 -42 18 -105 61 -70 21 18 17 57 -8 74 -29 20 -31
20 -53 -4z"/>
<path d="M11988 1649 c-22 -12 -24 -62 -4 -79 43 -35 99 28 61 70 -20 22 -32
24 -57 9z"/>
<path d="M11110 1595 l0 -45 333 0 c311 0 335 1 350 18 10 10 17 25 17 33 0
37 -16 39 -362 39 l-338 0 0 -45z"/>
<path d="M6698 1519 c-21 -12 -24 -49 -6 -67 17 -17 65 -15 72 4 10 25 7 42
-10 58 -18 18 -32 20 -56 5z"/>
<path d="M11117 1453 c-4 -3 -7 -24 -7 -45 l0 -38 334 0 c291 0 337 2 350 16
24 24 20 53 -10 64 -28 11 -657 14 -667 3z"/>
<path d="M6959 1411 c-40 -40 -36 -93 10 -128 18 -14 60 -17 77 -5 20 14 44
57 44 80 0 29 -51 82 -80 82 -12 0 -35 -13 -51 -29z"/>
<path d="M7794 1428 c-47 -21 -58 -95 -19 -133 65 -66 163 11 121 94 -9 17
-18 31 -19 31 -1 0 -16 4 -32 9 -18 5 -39 4 -51 -1z"/>
<path d="M7210 1340 l0 -40 205 0 205 0 0 40 0 40 -205 0 -205 0 0 -40z"/>
</g>
</svg>
